<?xml version="1.0" encoding="UTF-8" standalone="no"?>
<!-- Created with Inkscape (http://www.inkscape.org/) -->

<svg
   xmlns:dc="http://purl.org/dc/elements/1.1/"
   xmlns:cc="http://creativecommons.org/ns#"
   xmlns:rdf="http://www.w3.org/1999/02/22-rdf-syntax-ns#"
   xmlns:svg="http://www.w3.org/2000/svg"
   xmlns="http://www.w3.org/2000/svg"
   xmlns:xlink="http://www.w3.org/1999/xlink"
   xmlns:sodipodi="http://sodipodi.sourceforge.net/DTD/sodipodi-0.dtd"
   xmlns:inkscape="http://www.inkscape.org/namespaces/inkscape"
   width="46.288857mm"
   height="52.790039mm"
   viewBox="0 0 46.288857 52.790039"
   version="1.1"
   id="svg4297"
   inkscape:version="0.92.2 (5c3e80d, 2017-08-06)"
   sodipodi:docname="trash_bin.svg">
  <defs
     id="defs4291">
    <inkscape:path-effect
       live_update="true"
       vertical_mirror="false"
       horizontal_mirror="false"
       is_visible="true"
       id="path-effect4106"
       gridpoint32x33x34x35="-534.75098,89.842775"
       gridpoint29x31="-435.75732,89.842775"
       gridpoint28x30="-633.74463,89.842775"
       gridpoint25x27="-336.76367,89.842775"
       gridpoint24x26="-732.73828,89.842775"
       gridpoint22x23="-534.75098,188.83643"
       gridpoint20x21="-534.75098,-9.1508775"
       gridpoint19="-435.75732,188.83643"
       gridpoint18="-633.74463,188.83643"
       gridpoint17="-435.75732,-9.1508775"
       gridpoint16="-633.74463,-9.1508775"
       gridpoint15="-336.76367,188.83643"
       gridpoint14="-732.73828,188.83643"
       gridpoint13="-336.76367,-9.1508775"
       gridpoint12="-732.73828,-9.1508775"
       gridpoint10x11="-534.75098,287.83008"
       gridpoint8x9="-534.75098,-108.14453"
       gridpoint7="-435.75732,287.83008"
       gridpoint6="-633.74463,287.83008"
       gridpoint5="-435.75732,-108.14453"
       gridpoint4="-633.74463,-108.14453"
       gridpoint3="-293.87629,287.83008"
       gridpoint2="-779.44025,287.83008"
       gridpoint1="-336.76367,-108.14453"
       gridpoint0="-732.73828,-108.14453"
       effect="lattice2" />
    <inkscape:path-effect
       effect="lattice2"
       gridpoint0="-732.73828,-108.14453"
       gridpoint1="-336.76367,-108.14453"
       gridpoint2="-779.44025,287.83008"
       gridpoint3="-293.87629,287.83008"
       gridpoint4="-633.74463,-108.14453"
       gridpoint5="-435.75732,-108.14453"
       gridpoint6="-633.74463,287.83008"
       gridpoint7="-435.75732,287.83008"
       gridpoint8x9="-534.75098,-108.14453"
       gridpoint10x11="-534.75098,287.83008"
       gridpoint12="-732.73828,-9.1508775"
       gridpoint13="-336.76367,-9.1508775"
       gridpoint14="-732.73828,188.83643"
       gridpoint15="-336.76367,188.83643"
       gridpoint16="-633.74463,-9.1508775"
       gridpoint17="-435.75732,-9.1508775"
       gridpoint18="-633.74463,188.83643"
       gridpoint19="-435.75732,188.83643"
       gridpoint20x21="-534.75098,-9.1508775"
       gridpoint22x23="-534.75098,188.83643"
       gridpoint24x26="-732.73828,89.842775"
       gridpoint25x27="-336.76367,89.842775"
       gridpoint28x30="-633.74463,89.842775"
       gridpoint29x31="-435.75732,89.842775"
       gridpoint32x33x34x35="-534.75098,89.842775"
       id="path-effect4118"
       is_visible="true"
       horizontal_mirror="false"
       vertical_mirror="false"
       live_update="true" />
    <filter
       height="1.4187357"
       y="-0.20936792"
       width="1.0869509"
       x="-0.04347543"
       id="filter1639"
       style="color-interpolation-filters:sRGB"
       inkscape:collect="always">
      <feGaussianBlur
         id="feGaussianBlur1641"
         stdDeviation="2.1537381"
         inkscape:collect="always" />
    </filter>
    <linearGradient
       gradientTransform="matrix(4.9528921,0,0,4.9528921,643.41004,-1191.3252)"
       gradientUnits="userSpaceOnUse"
       y2="356.68405"
       x2="481.97043"
       y1="356.68405"
       x1="412.78259"
       id="linearGradient1284"
       xlink:href="#linearGradient1647"
       inkscape:collect="always" />
    <linearGradient
       inkscape:collect="always"
       id="linearGradient1647">
      <stop
         style="stop-color:#60a016;stop-opacity:1"
         offset="0"
         id="stop1637" />
      <stop
         id="stop1639"
         offset="0.23001674"
         style="stop-color:#98e90d;stop-opacity:1" />
      <stop
         style="stop-color:#64a616;stop-opacity:1"
         offset="0.49154502"
         id="stop1641" />
      <stop
         id="stop1643"
         offset="0.75290453"
         style="stop-color:#99ea0c;stop-opacity:1" />
      <stop
         style="stop-color:#61a017;stop-opacity:1"
         offset="1"
         id="stop1645" />
    </linearGradient>
    <radialGradient
       gradientUnits="userSpaceOnUse"
       gradientTransform="matrix(4.9528921,0,0,0.83704718,643.41004,266.82256)"
       r="33.541561"
       fy="353.98846"
       fx="447.51794"
       cy="353.98846"
       cx="447.51794"
       id="radialGradient1298"
       xlink:href="#linearGradient1296"
       inkscape:collect="always" />
    <linearGradient
       id="linearGradient1296"
       inkscape:collect="always">
      <stop
         style="stop-color:#aff637;stop-opacity:1"
         offset="0"
         id="stop1294" />
      <stop
         style="stop-color:#5f9f16;stop-opacity:1"
         offset="1"
         id="stop1292" />
    </linearGradient>
    <linearGradient
       gradientTransform="matrix(4.9528921,0,0,4.9528921,-46.07385,-1244.4518)"
       gradientUnits="userSpaceOnUse"
       y2="327.9339"
       x2="628.17004"
       y1="327.9339"
       x1="545.19958"
       id="linearGradient1321"
       xlink:href="#linearGradient1319"
       inkscape:collect="always" />
    <linearGradient
       id="linearGradient1319"
       inkscape:collect="always">
      <stop
         id="stop1315"
         offset="0"
         style="stop-color:#d6d6d8;stop-opacity:1;" />
      <stop
         style="stop-color:#eaeaec;stop-opacity:1"
         offset="0.24569933"
         id="stop1323" />
      <stop
         id="stop1327"
         offset="0.50443226"
         style="stop-color:#d6d6d8;stop-opacity:1;" />
      <stop
         id="stop1325"
         offset="0.76981521"
         style="stop-color:#e5e5e7;stop-opacity:1" />
      <stop
         id="stop1317"
         offset="1"
         style="stop-color:#d7d8da;stop-opacity:1" />
    </linearGradient>
    <linearGradient
       gradientTransform="matrix(4.9528921,0,0,4.9528921,-46.07385,-1244.4518)"
       gradientUnits="userSpaceOnUse"
       y2="335.55972"
       x2="579.646"
       y1="288.32233"
       x1="580.13611"
       id="linearGradient1337"
       xlink:href="#linearGradient1335"
       inkscape:collect="always" />
    <linearGradient
       id="linearGradient1335"
       inkscape:collect="always">
      <stop
         id="stop1331"
         offset="0"
         style="stop-color:#a4bcc3;stop-opacity:1" />
      <stop
         id="stop1333"
         offset="1"
         style="stop-color:#b9d1da;stop-opacity:0;" />
    </linearGradient>
    <linearGradient
       gradientTransform="matrix(4.9528921,0,0,4.8444817,-46.07385,-1201.4166)"
       gradientUnits="userSpaceOnUse"
       y2="283.95972"
       x2="630.65295"
       y1="283.95972"
       x1="542.51654"
       id="linearGradient1383"
       xlink:href="#linearGradient1381"
       inkscape:collect="always" />
    <linearGradient
       id="linearGradient1381"
       inkscape:collect="always">
      <stop
         id="stop1377"
         offset="0"
         style="stop-color:#9beb0a;stop-opacity:1" />
      <stop
         style="stop-color:#90e612;stop-opacity:1"
         offset="0.17233464"
         id="stop1385" />
      <stop
         id="stop1387"
         offset="0.45082068"
         style="stop-color:#6fbb16;stop-opacity:1" />
      <stop
         style="stop-color:#8ee518;stop-opacity:1"
         offset="0.75719553"
         id="stop1389" />
      <stop
         id="stop1379"
         offset="1"
         style="stop-color:#89e31f;stop-opacity:1" />
    </linearGradient>
    <linearGradient
       gradientTransform="matrix(3.0705518,0,0,3.1300136,2738.5698,256.95344)"
       y2="141.10101"
       x2="85.764549"
       y1="6.599699"
       x1="22.614862"
       gradientUnits="userSpaceOnUse"
       id="linearGradient776"
       xlink:href="#linearGradient1914-1"
       inkscape:collect="always" />
    <linearGradient
       inkscape:collect="always"
       id="linearGradient1914-1">
      <stop
         style="stop-color:#6eb314;stop-opacity:0.7"
         offset="0"
         id="stop1910-0" />
      <stop
         style="stop-color:#97e70d;stop-opacity:0.3"
         offset="1"
         id="stop1912-6" />
    </linearGradient>
    <clipPath
       id="clipPath2035"
       clipPathUnits="userSpaceOnUse">
      <path
         sodipodi:nodetypes="cccccccscccccc"
         inkscape:connector-curvature="0"
         id="path2037"
         d="m 2000.7363,133.64552 -410.9422,0.35312 38.3998,397.28473 h 0.1312 c 0.3367,1.95874 1.6671,3.7632 3.6907,5.39029 2.3557,1.89396 5.7051,3.64097 9.9717,5.30064 8.5335,3.31952 20.7453,6.26513 35.8225,8.74586 30.1543,4.9612 71.7314,8.0188 117.6592,8.0188 45.9278,0 87.5075,-3.0576 117.6618,-8.0188 15.0771,-2.48073 27.2967,-5.42634 35.8301,-8.74586 4.2667,-1.65967 7.6085,-3.40668 9.9641,-5.30064 1.6271,-1.30836 3.1057,-2.75312 3.3425,-3.54542 13.1244,-133.12063 25.7069,-266.3186 38.4699,-399.48222 z"
         style="opacity:0.7;fill:url(#linearGradient2039);fill-opacity:1;stroke:none;stroke-width:1.31045258px;stroke-linecap:butt;stroke-linejoin:miter;stroke-opacity:1" />
    </clipPath>
    <filter
       height="1.5788521"
       y="-0.28942597"
       width="1.1150866"
       x="-0.057543296"
       id="filter2027"
       style="color-interpolation-filters:sRGB"
       inkscape:collect="always">
      <feGaussianBlur
         id="feGaussianBlur2029"
         stdDeviation="9.8529326"
         inkscape:collect="always" />
    </filter>
    <linearGradient
       gradientTransform="translate(464.24218,39.41305)"
       gradientUnits="userSpaceOnUse"
       y2="360.79788"
       x2="566.65588"
       y1="275.38351"
       x1="559.65753"
       id="linearGradient1401"
       xlink:href="#linearGradient2622"
       inkscape:collect="always" />
    <linearGradient
       id="linearGradient2622"
       inkscape:collect="always">
      <stop
         id="stop2618"
         offset="0"
         style="stop-color:#ffffff;stop-opacity:1;" />
      <stop
         id="stop2620"
         offset="1"
         style="stop-color:#ffffff;stop-opacity:0;" />
    </linearGradient>
    <filter
       height="1.0067623"
       y="-0.0033811692"
       width="1.0303639"
       x="-0.015181927"
       id="filter1455"
       style="color-interpolation-filters:sRGB"
       inkscape:collect="always">
      <feGaussianBlur
         id="feGaussianBlur1457"
         stdDeviation="0.1008729"
         inkscape:collect="always" />
    </filter>
    <linearGradient
       gradientTransform="translate(470.70072,39.41305)"
       gradientUnits="userSpaceOnUse"
       y2="362.18469"
       x2="607.79956"
       y1="274.93585"
       x1="618.10242"
       id="linearGradient1409"
       xlink:href="#linearGradient2622"
       inkscape:collect="always" />
    <filter
       height="1.0067623"
       y="-0.0033811692"
       width="1.0303639"
       x="-0.015181927"
       id="filter1451"
       style="color-interpolation-filters:sRGB"
       inkscape:collect="always">
      <feGaussianBlur
         id="feGaussianBlur1453"
         stdDeviation="0.1008729"
         inkscape:collect="always" />
    </filter>
    <linearGradient
       y2="356.68405"
       x2="481.97043"
       y1="356.68405"
       x1="412.78259"
       gradientTransform="matrix(6.3093533,0,0,6.1712516,36.56105,-2026.9657)"
       gradientUnits="userSpaceOnUse"
       id="linearGradient1374"
       xlink:href="#linearGradient1647"
       inkscape:collect="always" />
    <linearGradient
       y2="360.79788"
       x2="566.65588"
       y1="275.38351"
       x1="559.65753"
       gradientTransform="matrix(4.9528921,0,0,4.9528921,-75.89955,-1275.8789)"
       gradientUnits="userSpaceOnUse"
       id="linearGradient1920"
       xlink:href="#linearGradient2622"
       inkscape:collect="always" />
    <linearGradient
       y2="835.24628"
       x2="2087.3403"
       y1="1160.8403"
       x1="2121.2446"
       gradientTransform="matrix(0.33567716,0,0,0.28175993,2133.0376,-119.54755)"
       gradientUnits="userSpaceOnUse"
       id="linearGradient1513"
       xlink:href="#linearGradient1502"
       inkscape:collect="always" />
    <linearGradient
       id="linearGradient1502"
       inkscape:collect="always">
      <stop
         id="stop1498"
         offset="0"
         style="stop-color:#ffffff;stop-opacity:1;" />
      <stop
         id="stop1500"
         offset="1"
         style="stop-color:#89d30e;stop-opacity:1" />
    </linearGradient>
    <linearGradient
       y2="362.18469"
       x2="607.79956"
       y1="274.93585"
       x1="618.10242"
       gradientTransform="matrix(4.9528921,0,0,4.9528921,-24.05885,-1270.0403)"
       gradientUnits="userSpaceOnUse"
       id="linearGradient1927"
       xlink:href="#linearGradient2622"
       inkscape:collect="always" />
    <linearGradient
       gradientTransform="matrix(4.9528921,0,0,4.8444817,-46.07385,-1201.4166)"
       gradientUnits="userSpaceOnUse"
       y2="280.69559"
       x2="629.12579"
       y1="280.69559"
       x1="544.61798"
       id="linearGradient1361"
       xlink:href="#linearGradient1359"
       inkscape:collect="always" />
    <linearGradient
       id="linearGradient1359"
       inkscape:collect="always">
      <stop
         id="stop1355"
         offset="0"
         style="stop-color:#5f9d16;stop-opacity:1" />
      <stop
         style="stop-color:#8fdd0f;stop-opacity:1"
         offset="0.28678373"
         id="stop1365" />
      <stop
         style="stop-color:#65a816;stop-opacity:1"
         offset="0.54274458"
         id="stop1363" />
      <stop
         id="stop1367"
         offset="0.85407066"
         style="stop-color:#88d40f;stop-opacity:1" />
      <stop
         id="stop1357"
         offset="1"
         style="stop-color:#5f9d16;stop-opacity:1" />
    </linearGradient>
    <linearGradient
       gradientTransform="matrix(1.2687012,0,0,1.1216349,2134.4149,-135.73847)"
       gradientUnits="userSpaceOnUse"
       y2="237.2636"
       x2="557.1272"
       y1="374.12134"
       x1="570.86761"
       id="linearGradient1590"
       xlink:href="#linearGradient1588-3"
       inkscape:collect="always" />
    <linearGradient
       id="linearGradient1588-3"
       inkscape:collect="always">
      <stop
         id="stop1584-2"
         offset="0"
         style="stop-color:#000000;stop-opacity:1;" />
      <stop
         id="stop1586-0"
         offset="1"
         style="stop-color:#000000;stop-opacity:0;" />
    </linearGradient>
    <filter
       height="1.4534473"
       y="-0.22672364"
       width="1.4585816"
       x="-0.22929081"
       id="filter2178"
       style="color-interpolation-filters:sRGB"
       inkscape:collect="always">
      <feGaussianBlur
         id="feGaussianBlur2180"
         stdDeviation="2.6368062"
         inkscape:collect="always" />
    </filter>
  </defs>
  <sodipodi:namedview
     id="base"
     pagecolor="#ffffff"
     bordercolor="#666666"
     borderopacity="1.0"
     inkscape:pageopacity="0.0"
     inkscape:pageshadow="2"
     inkscape:zoom="0.41767578"
     inkscape:cx="-602.79604"
     inkscape:cy="392.6226"
     inkscape:document-units="mm"
     inkscape:current-layer="layer1"
     showgrid="false"
     fit-margin-left="5"
     fit-margin-top="5"
     fit-margin-right="5"
     fit-margin-bottom="5"
     inkscape:window-width="1600"
     inkscape:window-height="836"
     inkscape:window-x="0"
     inkscape:window-y="27"
     inkscape:window-maximized="1" />
  <metadata
     id="metadata4294">
    <rdf:RDF>
      <cc:Work
         rdf:about="">
        <dc:format>image/svg+xml</dc:format>
        <dc:type
           rdf:resource="http://purl.org/dc/dcmitype/StillImage" />
        <dc:title></dc:title>
      </cc:Work>
    </rdf:RDF>
  </metadata>
  <g
     inkscape:label="Layer 1"
     inkscape:groupmode="layer"
     id="layer1"
     transform="translate(-208.78629,-199.92469)">
    <g
       transform="matrix(0.08312977,0,0,0.08312977,187.07459,210.91535)"
       id="g1691">
      <ellipse
         transform="matrix(3.0867846,0,0,2.9449929,-1329.9248,-308.40551)"
         ry="12.344231"
         rx="59.447041"
         cy="237.52286"
         cx="605.93475"
         id="path1609"
         style="opacity:0.2;fill:#000000;fill-opacity:1;stroke:none;stroke-width:0.44545487;stroke-linecap:round;stroke-linejoin:round;filter:url(#filter1639)" />
      <path
         inkscape:connector-curvature="0"
         id="ellipse1265"
         d="m 539.51421,339.09114 a 171.24733,30.163756 0 0 0 -171.19582,29.90491 h -0.0661 l 0.0302,0.17688 a 171.24733,30.163756 0 0 0 -0.0151,0.0816 171.24733,30.163756 0 0 0 0.0767,0.25361 l 3.79042,21.3103 a 167.39295,30.163756 0 0 0 -0.0151,0.0945 167.39295,30.163756 0 0 0 0.0816,0.2914 l 0.23055,1.30023 h 0.13039 a 167.39295,30.163756 0 0 0 166.94956,28.57142 167.39295,30.163756 0 0 0 167.1083,-28.72498 h 0.1251 l 4.18726,-23.14284 h -0.18671 A 171.24733,30.163756 0 0 0 539.51123,339.09084 Z"
         style="opacity:1;fill:url(#linearGradient1284);fill-opacity:1;stroke:none;stroke-width:2.31970167;stroke-linecap:round;stroke-linejoin:round" />
      <ellipse
         style="opacity:1;fill:#599714;fill-opacity:1;stroke:none;stroke-width:2.34625673;stroke-linecap:round;stroke-linejoin:round"
         id="ellipse1263"
         cx="539.51471"
         cy="369.25369"
         rx="171.24734"
         ry="30.163757" />
      <ellipse
         style="opacity:0.4;fill:none;fill-opacity:1;stroke:#004455;stroke-width:2.20000362;stroke-linecap:round;stroke-linejoin:round"
         id="ellipse1302"
         cx="540.29266"
         cy="368.67429"
         rx="166.14249"
         ry="27.335331" />
      <ellipse
         ry="28.075869"
         rx="166.12775"
         cy="367.91898"
         cx="540.29266"
         id="path1261"
         style="opacity:1;fill:url(#radialGradient1298);fill-opacity:1;stroke:none;stroke-width:2.22950554;stroke-linecap:round;stroke-linejoin:round" />
      <path
         sodipodi:nodetypes="cccccccscccccc"
         inkscape:connector-curvature="0"
         id="path1304"
         d="m 745.55739,-27.985933 -410.94214,0.353121 38.39981,397.284722 h 0.13115 c 0.33676,1.95874 1.66711,3.7632 3.69071,5.39028 2.35574,1.89396 5.70512,3.64097 9.97175,5.30064 8.53346,3.31952 20.7453,6.26513 35.82248,8.74586 30.15428,4.9612 71.73139,8.0188 117.65919,8.0188 45.92784,0 87.50748,-3.0576 117.6618,-8.0188 15.0771,-2.48073 27.29665,-5.42634 35.83011,-8.74586 4.26667,-1.65967 7.60849,-3.40668 9.96404,-5.30064 1.62716,-1.30836 3.10575,-2.75312 3.34254,-3.54542 13.12445,-133.12063 25.70691,-266.31859 38.46992,-399.482204 z"
         style="opacity:0.35;fill:url(#linearGradient1321);fill-opacity:1;stroke:none;stroke-width:1.31045258px;stroke-linecap:butt;stroke-linejoin:miter;stroke-opacity:1" />
      <path
         style="opacity:0.7;fill:url(#linearGradient1337);fill-opacity:1;stroke:none;stroke-width:1.31045258px;stroke-linecap:butt;stroke-linejoin:miter;stroke-opacity:1"
         d="m 745.55739,-27.985933 -410.94214,0.353121 38.39981,397.284722 h 0.13115 c 0.33676,1.95874 1.66711,3.7632 3.69071,5.39028 2.35574,1.89396 5.70512,3.64097 9.97175,5.30064 8.53346,3.31952 20.7453,6.26513 35.82248,8.74586 30.15428,4.9612 71.73139,8.0188 117.65919,8.0188 45.92784,0 87.50748,-3.0576 117.6618,-8.0188 15.0771,-2.48073 27.29665,-5.42634 35.83011,-8.74586 4.26667,-1.65967 7.60849,-3.40668 9.96404,-5.30064 1.62716,-1.30836 3.10575,-2.75312 3.34254,-3.54542 13.12445,-133.12063 25.70691,-266.31859 38.46992,-399.482204 z"
         id="path1329"
         inkscape:connector-curvature="0"
         sodipodi:nodetypes="cccccccscccccc" />
      <path
         style="opacity:1;fill:url(#linearGradient1383);fill-opacity:1;stroke:none;stroke-width:2.92248535;stroke-linecap:round;stroke-linejoin:round"
         d="m 539.4929,-72.063725 a 218.14728,37.583726 0 0 0 -218.08166,37.261251 h -0.0847 l 0.0393,0.220196 a 218.14728,37.583726 0 0 0 -0.0189,0.101631 218.14728,37.583726 0 0 0 0.0975,0.31578 l 4.8285,26.5523829 a 213.23729,37.583726 0 0 0 -0.0189,0.1179212 213.23729,37.583726 0 0 0 0.10394,0.3635906 l 0.29329,1.6200567 h 0.16592 A 213.23729,37.583726 0 0 0 539.48976,30.088791 213.23729,37.583726 0 0 0 752.36439,-5.7022731 h 0.1595 l 5.33409,-28.8357089 h -0.23774 A 218.14728,37.583726 0 0 0 539.48968,-72.063971 Z"
         id="path1339"
         inkscape:connector-curvature="0" />
      <path
         inkscape:connector-curvature="0"
         style="fill:url(#linearGradient776);fill-opacity:1;fill-rule:evenodd;stroke-width:0.77503502pt"
         d="m 579.51562,66.515625 -67.73632,0.488281 c 14.45616,4.310968 23.52897,15.25209 31.2207,29.408203 l 20.73242,38.156251 -15.63476,10.06641 56.15429,0.49023 29.88282,-49.294922 -17.65821,9.218752 -12.27344,-22.587892 c -3.77985,-8.636647 -14.86173,-16.326549 -24.6875,-15.945313 z m -75.60742,2.46875 c -5.00101,-0.104332 -9.99804,1.697017 -14.73437,6.046875 l -28.28906,43.60156 53.02539,31.41602 28.1914,-45.93945 C 533.95155,86.770665 518.91126,69.297371 503.9082,68.984375 Z m 136.42188,77.330075 -52.62305,32.1211 25.62695,47.47851 c 25.05878,1.5118 56.26815,-7.79725 50.57227,-33.16601 z m -162.03516,0.63867 -57.98828,0.49415 16.43164,12.83593 -15.46484,29.62305 c -7.73196,13.66251 5.55061,26.96914 14.01367,31.60156 8.33132,4.56043 21.26205,5.10144 33.34375,4.93555 l 21.74609,-35.54883 16.42774,8.88672 z m 97.45313,64.64649 -27.67578,49.92383 27.67578,50.62304 0.68554,-20.24804 h 25.28516 c 9.227,0.8138 21.18386,-5.35636 25.62695,-14.31446 l 32.46094,-60.74609 c -10.70701,10.82359 -24.47431,13.61524 -40.31836,13.61523 h -42.71484 z m -153.02344,4.47656 35.27344,65.16992 c 7.08991,9.052 20.45928,11.19389 34.31054,10.86524 h 37.20899 v -61.71875 l -70.55274,-0.49414 c -10.95297,0.66043 -25.28726,-1.64339 -36.24023,-13.82227 z"
         id="imagebot_9-6" />
      <path
         clip-path="url(#clipPath2035)"
         sodipodi:nodetypes="ccccccccccccccc"
         inkscape:connector-curvature="0"
         id="path1984"
         transform="translate(-1255.1789,-161.63146)"
         d="m 2008.2396,132.53516 -426.1092,2.13457 6.2324,64.47851 26.479,0.49043 34.5937,14.60742 c 0,0 37.1349,-17.42965 44.209,-13.89257 7.0742,3.53707 38.0232,11.49562 54.8243,14.14843 16.8011,2.65278 50.4042,-1.76757 50.4042,-1.76757 l 53.9395,-4.42188 45.7617,1.0918 c 0,0 26.8034,-3.07418 38.2988,0.46289 11.4956,3.53707 41.5606,-9.72656 41.5606,-9.72657 l 23.6146,-2.82616 c 2.0631,-21.59328 4.1239,-43.18734 6.1934,-64.7793 z"
         style="opacity:0.4;fill:#63a616;fill-opacity:1;stroke:none;stroke-width:1.31045258px;stroke-linecap:butt;stroke-linejoin:miter;stroke-opacity:1;filter:url(#filter2027)" />
      <path
         transform="matrix(4.9528921,0,0,4.9528921,-2365.6994,-1439.6604)"
         inkscape:connector-curvature="0"
         id="path1391"
         d="m 552.70326,291.66071 6.9709,71.60096 8.97536,-0.15058 -7.15368,-70.38895 z"
         style="fill:url(#linearGradient1401);stroke:none;stroke-width:0.26458332px;stroke-linecap:butt;stroke-linejoin:miter;stroke-opacity:1;filter:url(#filter1455)" />
      <path
         transform="matrix(4.9528921,0,0,4.9528921,-2365.6994,-1439.6604)"
         style="fill:url(#linearGradient1409);stroke:none;stroke-width:0.26458332px;stroke-linecap:butt;stroke-linejoin:miter;stroke-opacity:1;filter:url(#filter1451)"
         d="m 622.05804,291.66071 -6.9709,71.60096 -8.97536,-0.15058 7.15368,-70.38895 z"
         id="path1393"
         inkscape:connector-curvature="0" />
      <path
         inkscape:connector-curvature="0"
         id="path1372"
         d="m 321.4222,-34.843232 a 218.14727,37.583726 0 0 0 -0.0113,0.0395 h -0.0847 l 0.0397,0.220195 a 218.14727,37.583726 0 0 0 -0.0189,0.102614 218.14727,37.583726 0 0 0 0.0968,0.315478 l 4.82982,26.5516798 a 213.23729,37.583726 0 0 0 -0.0189,0.1179213 213.23729,37.583726 0 0 0 0.10507,0.3654803 l 0.29178,1.6197544 h 0.1663 A 213.23729,37.583726 0 0 0 539.48999,30.088489 213.23729,37.583726 0 0 0 752.36685,-5.7033314 h 0.15836 L 757.02482,-30.02198 A 219.39056,36.567502 0 0 1 540.61715,0.81053328 219.39056,36.567502 0 0 1 321.42353,-34.843621 Z"
         style="opacity:1;fill:url(#linearGradient1374);fill-opacity:1;stroke:none;stroke-width:2.92248535;stroke-linecap:round;stroke-linejoin:round" />
      <path
         inkscape:connector-curvature="0"
         id="path1918"
         d="m 363.4285,-14.29943 2.7813,28.57031 a 213.23729,37.583726 0 0 0 44.0058,8.03321 l -2.957,-29.09961 a 219.39055,36.567502 0 0 1 -43.8301,-7.50391 z"
         style="fill:url(#linearGradient1920);stroke:none;stroke-width:1.31045258px;stroke-linecap:butt;stroke-linejoin:miter;stroke-opacity:1;filter:url(#filter1455)" />
      <path
         inkscape:connector-curvature="0"
         id="path1496"
         d="m 321.42466,-34.843739 h -0.003 a 218.14726,37.583726 0 0 0 -0.0113,0.0395 h -0.085 l 0.0401,0.220196 a 218.14726,37.583726 0 0 0 -0.0189,0.102614 218.14726,37.583726 0 0 0 0.0968,0.315477 l 0.7415,4.077045 c 3.1914,4.852868 11.19988,8.890049 22.28187,12.593438 11.46138,3.830113 26.30785,7.168192 42.76146,9.7857038 h 0.0113 c 41.0891,6.3454867 96.09018,9.887093 153.38086,9.8923844 53.9576,-0.011339 103.89347,-3.11829926 142.52051,-8.3430426 19.31354,-2.6123717 35.79742,-5.7510806 48.5788,-9.3168376 11.17084,-3.116383 19.52568,-6.49838 24.53389,-10.368839 l 0.77299,-4.176719 A 219.39054,36.567499 0 0 1 540.62067,0.80951281 219.39054,36.567499 0 0 1 321.42678,-34.844117 Z"
         style="color:#000000;font-style:normal;font-variant:normal;font-weight:normal;font-stretch:normal;font-size:medium;line-height:normal;font-family:sans-serif;font-variant-ligatures:normal;font-variant-position:normal;font-variant-caps:normal;font-variant-numeric:normal;font-variant-alternates:normal;font-feature-settings:normal;text-indent:0;text-align:start;text-decoration:none;text-decoration-line:none;text-decoration-style:solid;text-decoration-color:#000000;letter-spacing:normal;word-spacing:normal;text-transform:none;writing-mode:lr-tb;direction:ltr;text-orientation:mixed;dominant-baseline:auto;baseline-shift:baseline;text-anchor:start;white-space:normal;shape-padding:0;clip-rule:nonzero;display:inline;overflow:visible;visibility:visible;opacity:1;isolation:auto;mix-blend-mode:normal;color-interpolation:sRGB;color-interpolation-filters:linearRGB;solid-color:#000000;solid-opacity:1;vector-effect:none;fill:url(#linearGradient1513);fill-opacity:1;fill-rule:nonzero;stroke:none;stroke-width:2.84763908;stroke-linecap:round;stroke-linejoin:round;stroke-miterlimit:4;stroke-dasharray:none;stroke-dashoffset:0;stroke-opacity:1;color-rendering:auto;image-rendering:auto;shape-rendering:auto;text-rendering:auto;enable-background:accumulate" />
      <path
         inkscape:connector-curvature="0"
         id="path1925"
         d="m 725.1512,-16.08263 a 219.39055,36.567502 0 0 1 -43.8809,8.32226 l -2.9219,28.74805 a 213.23729,37.583726 0 0 0 44.0977,-9.29492 z"
         style="fill:url(#linearGradient1927);stroke:none;stroke-width:1.31045258px;stroke-linecap:butt;stroke-linejoin:miter;stroke-opacity:1;filter:url(#filter1451)" />
      <ellipse
         style="opacity:1;fill:url(#linearGradient1361);fill-opacity:1;stroke:none;stroke-width:2.62446189;stroke-linecap:round;stroke-linejoin:round"
         id="ellipse1349"
         cx="541.01367"
         cy="-36.800556"
         rx="209.2791"
         ry="30.882536" />
      <path
         inkscape:connector-curvature="0"
         id="path1516"
         d="m 321.42466,-34.843739 h -0.003 a 218.14726,37.583726 0 0 0 -0.0113,0.0395 h -0.085 l 0.0401,0.220196 a 218.14726,37.583726 0 0 0 -0.0189,0.102614 218.14726,37.583726 0 0 0 0.0968,0.315477 l 0.28762,1.582367 a 223.41751,36.567499 0 0 0 1.28829,0.941878 219.39054,36.567499 0 0 1 -1.59575,-3.202406 z M 750.79903,-2.9848683 A 217.1513,37.583726 0 0 1 539.4955,26.230347 217.1513,37.583726 0 0 1 328.29883,-2.9796526 213.23728,37.583726 0 0 0 539.48957,30.088262 213.23728,37.583726 0 0 0 750.79903,-2.9848683 Z"
         style="opacity:1;fill:#5f9d16;fill-opacity:1;stroke:none;stroke-width:2.92248511;stroke-linecap:round;stroke-linejoin:round" />
      <ellipse
         ry="30.882536"
         rx="209.2791"
         cy="-36.111897"
         cx="542.39099"
         id="ellipse1582"
         style="opacity:1;fill:url(#linearGradient1590);fill-opacity:1;stroke:none;stroke-width:2.62446189;stroke-linecap:round;stroke-linejoin:round" />
      <path
         inkscape:connector-curvature="0"
         id="ellipse1577"
         d="m 541.01393,-67.683313 a 209.2791,30.882534 0 0 0 -209.27963,30.882784 209.2791,30.882534 0 0 0 0.25059,1.042731 209.2791,30.882534 0 0 1 209.02915,-30.144915 209.2791,30.882534 0 0 1 209.02855,29.840028 209.2791,30.882534 0 0 0 0.25059,-0.737844 209.2791,30.882534 0 0 0 -209.27899,-30.882784 z"
         style="opacity:1;fill:#609f16;fill-opacity:1;stroke:none;stroke-width:2.62446165;stroke-linecap:round;stroke-linejoin:round" />
      <path
         inkscape:connector-curvature="0"
         id="path1939"
         d="m 720.59652,-21.014269 a 209.2791,30.882536 0 0 1 -45.9922,7.951169 l 6.4063,5.3339834 a 219.39054,36.567498 0 0 0 43.3457,-8.1621124 z"
         style="opacity:0.5;fill:#ffffff;stroke:none;stroke-width:0.99999994px;stroke-linecap:butt;stroke-linejoin:miter;stroke-opacity:1" />
      <path
         inkscape:connector-curvature="0"
         id="path1951"
         d="m 371.62915,-18.526977 -7.14206,4.473637 c 12.33959,2.779627 26.98216,5.253487 43.49023,7.3476628 l 8.9472,-5.7686778 c -16.69845,-1.918492 -33.23316,-3.486648 -45.29537,-6.052622 z"
         style="opacity:0.54000005;fill:#ffffff;stroke:none;stroke-width:0.99999994px;stroke-linecap:butt;stroke-linejoin:miter;stroke-opacity:1"
         sodipodi:nodetypes="ccccc" />
      <g
         transform="matrix(2.3292299,0,0,2.3292299,165.37932,-226.35905)"
         id="g2077">
        <path
           sodipodi:type="star"
           style="opacity:0.9;fill:#ffffff;fill-opacity:1;stroke:none;stroke-width:0.16391516;stroke-linecap:round;stroke-linejoin:round"
           id="path2055"
           sodipodi:sides="4"
           sodipodi:cx="192.36559"
           sodipodi:cy="-9.2497711"
           sodipodi:r1="6.2427473"
           sodipodi:r2="0.42797449"
           sodipodi:arg1="1.3076536"
           sodipodi:arg2="1.8237933"
           inkscape:flatsided="false"
           inkscape:rounded="-3.46945e-18"
           inkscape:randomized="0.02"
           d="m 194.03931,-3.3030106 -1.8347,-5.4700101 -5.74854,1.1164135 5.55306,-1.6156956 -1.19615,-6.0951912 1.67157,5.6746063 5.7858,-1.2937603 -5.55306,1.837756 z"
           transform="translate(47.58112,100.47904)"
           inkscape:transform-center-x="0.033651922"
           inkscape:transform-center-y="-0.10150474" />
        <path
           inkscape:transform-center-y="0.022288544"
           inkscape:transform-center-x="0.05564581"
           transform="matrix(0.29301292,-0.2010907,0.2010907,0.29301292,123.55279,179.66872)"
           d="m 414.24795,-6.8460367 -3.80506,-12.0731113 -12.31001,2.802254 11.89925,-3.994858 -2.5666,-12.416377 3.77632,11.827009 12.31,-2.328098 -11.89924,3.520702 z"
           inkscape:randomized="0.02"
           inkscape:rounded="-3.46945e-18"
           inkscape:flatsided="false"
           sodipodi:arg2="1.8237933"
           sodipodi:arg1="1.3076536"
           sodipodi:r2="0.9138329"
           sodipodi:r1="13.329832"
           sodipodi:cy="-19.750582"
           sodipodi:cx="410.74878"
           sodipodi:sides="4"
           id="path2057"
           style="opacity:0.9;fill:#ffffff;fill-opacity:1;stroke:none;stroke-width:0.34999999;stroke-linecap:round;stroke-linejoin:round"
           sodipodi:type="star" />
        <path
           sodipodi:type="star"
           style="opacity:0.9;fill:#ffffff;fill-opacity:1;stroke:none;stroke-width:0.34999999;stroke-linecap:round;stroke-linejoin:round"
           id="path2059"
           sodipodi:sides="4"
           sodipodi:cx="410.74878"
           sodipodi:cy="-19.750582"
           sodipodi:r1="13.329832"
           sodipodi:r2="0.9138329"
           sodipodi:arg1="1.3076536"
           sodipodi:arg2="1.8237933"
           inkscape:flatsided="false"
           inkscape:rounded="-3.46945e-18"
           inkscape:randomized="0.02"
           d="m 414.24795,-6.8460367 -3.80506,-12.0731113 -12.31001,2.802254 11.89925,-3.994858 -2.5666,-12.416377 3.77632,11.827009 12.31,-2.328098 -11.89924,3.520702 z"
           transform="matrix(0.34194259,-0.09679517,0.09679517,0.34194259,101.40607,137.77451)"
           inkscape:transform-center-x="0.021986612"
           inkscape:transform-center-y="-0.070122646" />
        <path
           inkscape:transform-center-y="-0.075847816"
           inkscape:transform-center-x="0.027149175"
           transform="matrix(0.32100432,0.15248037,-0.15248037,0.32100432,105.12689,34.943077)"
           d="m 414.24795,-6.8460367 -3.80506,-12.0731113 -12.31001,2.802254 11.89925,-3.994858 -2.5666,-12.416377 3.77632,11.827009 12.31,-2.328098 -11.89924,3.520702 z"
           inkscape:randomized="0.02"
           inkscape:rounded="-3.46945e-18"
           inkscape:flatsided="false"
           sodipodi:arg2="1.8237933"
           sodipodi:arg1="1.3076536"
           sodipodi:r2="0.9138329"
           sodipodi:r1="13.329832"
           sodipodi:cy="-19.750582"
           sodipodi:cx="410.74878"
           sodipodi:sides="4"
           id="path2061"
           style="opacity:0.9;fill:#ffffff;fill-opacity:1;stroke:none;stroke-width:0.34999999;stroke-linecap:round;stroke-linejoin:round"
           sodipodi:type="star" />
      </g>
      <path
         inkscape:connector-curvature="0"
         id="path2079"
         d="m 720.41685,-27.851307 1.5605,8.986327 -2.9824,-4.50586 -0.4551,0.26953 3.3203,6.38086 -5.6777,-4.41015 -0.3457,0.40039 6.0703,5.83789 -8.2266,-0.98828 -0.088,0.52148 7.3204,1.63281 -10.4766,3.32813 0.1348,0.51172 9.6855,-2.04688 -5.3633,3.66602 0.2754,0.45117 6.2754,-3.42773 -4.3183,5.73632 0.4062,0.33789 5.7832,-6.26367 -1.1719,8.4336 0.5196,0.0996 1.957,-7.95507 3.3769,10.94922 0.5098,-0.13672 -2.0273,-9.08399 3.2675,4.97266 0.4551,-0.26563 -3.2695,-6.31054 5.582,4.36914 0.3457,-0.40039 -6.2949,-6.06836 8.5039,1.33398 0.1074,-0.51758 -7.6562,-2.00781 10.6738,-3.2832 -0.1328,-0.50977 -9.3184,1.99219 5.127,-3.23828 -0.2578,-0.46094 -6.4043,3.19336 4.4453,-5.47851 -0.3926,-0.35352 -5.6308,5.66406 1.0878,-8.04297 -0.5195,-0.0976 -1.914,7.84179 -3.3536,-11.177731 z"
         style="opacity:0.9;fill:#ffffff;fill-opacity:1;stroke:none;stroke-width:0.38179609;stroke-linecap:round;stroke-linejoin:round;filter:url(#filter2178)" />
    </g>
  </g>
</svg>
